<?xml version="1.0" standalone="no"?>
<!DOCTYPE svg PUBLIC "-//W3C//DTD SVG 20010904//EN"
 "http://www.w3.org/TR/2001/REC-SVG-20010904/DTD/svg10.dtd">
<svg version="1.0" xmlns="http://www.w3.org/2000/svg"
 width="700.000000pt" height="700.000000pt" viewBox="0 0 700.000000 700.000000"
 preserveAspectRatio="xMidYMid meet">
<metadata>
Created by potrace 1.11, written by Peter Selinger 2001-2013
</metadata>
<g transform="translate(0.000000,700.000000) scale(0.100000,-0.100000)"
fill="#000000" stroke="none">
<path d="M0 3500 l0 -3500 3500 0 3500 0 0 3500 0 3500 -3500 0 -3500 0 0
-3500z m3313 2198 c-6 -41 -133 -1014 -133 -1026 0 -9 117 -12 469 -12 259 0
472 3 475 8 2 4 35 242 73 530 l68 522 378 0 378 0 -6 -32 c-3 -18 -32 -240
-65 -493 -33 -253 -63 -477 -66 -497 l-6 -38 361 0 361 0 0 -370 0 -370 -410
0 c-384 0 -410 -1 -410 -17 -1 -10 -24 -197 -53 -416 -29 -219 -51 -400 -48
-402 2 -3 211 -5 463 -5 l458 0 0 -370 0 -370 -512 -2 -513 -3 -68 -525 c-38
-289 -70 -526 -71 -528 -2 -1 -171 -1 -377 0 l-374 3 67 510 c37 281 67 518
68 528 0 16 -29 17 -469 17 -259 0 -472 -4 -475 -8 -2 -4 -35 -243 -73 -530
l-68 -522 -378 0 -378 0 6 32 c3 18 32 240 65 493 33 253 62 477 66 498 l6 37
-361 0 -361 0 0 370 0 370 410 0 c321 0 410 3 410 13 0 6 23 183 50 392 27
209 50 392 50 408 l0 27 -460 0 -460 0 0 370 0 370 512 2 512 3 52 395 c29
217 60 455 69 528 l18 132 377 0 377 0 -4 -22z"/>
<path d="M3076 3883 c-3 -21 -26 -195 -51 -388 -25 -192 -47 -365 -50 -382
l-6 -33 475 0 474 0 6 38 c3 20 26 195 51 387 25 193 47 365 50 383 l6 32
-475 0 -474 0 -6 -37z"/>
</g>
</svg>
